<?xml version="1.0" encoding="UTF-8"?>
<svg id="Layer_2" data-name="Layer 2" xmlns="http://www.w3.org/2000/svg" xmlns:xlink="http://www.w3.org/1999/xlink" viewBox="0 0 1170.97 325.49">
  <defs>
    <style>
      .cls-1 {
        fill: url(#linear-gradient);
      }

      .cls-1, .cls-2, .cls-3, .cls-4 {
        stroke-width: 0px;
      }

      .cls-3 {
        fill: #fff;
      }

      .cls-5 {
        mask: url(#mask-1);
      }

      .cls-6 {
        mask: url(#mask);
      }

      .cls-4 {
        fill: #d8d8d8;
      }
    </style>
    <mask id="mask" x="0" y="9.85" width="1170.97" height="312.07" maskUnits="userSpaceOnUse">
      <g>
        <g>
          <g>
            <rect class="cls-3" x="611.09" y="93.92" width="33.71" height="71.76"/>
            <path class="cls-2" d="m643.31,95.42v68.76h-30.71v-68.76h30.71m3-3h-36.71v74.76h36.71v-74.76h0Z"/>
          </g>
          <g>
            <path class="cls-3" d="m636.2,301.08l.67-72.17h38.04s33.23.01,33.23.01c43.81,0,73.25-29.31,73.25-72.95s-28.75-72.47-73.25-72.47h-114.48V11.35h118.26c42.09,0,80.09,14.48,107,40.78,26.81,26.2,41.58,63.08,41.58,103.85s-14.8,77.68-41.67,104.05c-26.99,26.48-64.95,41.06-106.91,41.06h-75.71Z"/>
            <path class="cls-2" d="m711.91,12.85c21.22,0,41.24,3.59,59.5,10.68,17.71,6.88,33.34,16.86,46.45,29.67,13.08,12.78,23.27,28,30.28,45.24,7.2,17.7,10.85,37.06,10.85,57.54s-3.66,39.82-10.88,57.57c-7.03,17.28-17.24,32.56-30.34,45.41-13.14,12.89-28.77,22.93-46.47,29.86-18.26,7.15-38.24,10.77-59.39,10.77h-74.2l.64-69.17h36.55s33.23.01,33.23.01c44.71,0,74.74-29.92,74.74-74.45s-30.04-73.97-74.74-73.97h-112.98V12.85h116.76m0-3h-119.76v75.16h115.98c43.05,0,71.74,27.84,71.74,70.97s-28.69,71.45-71.74,71.45h-72.75s-.7,75.16-.7,75.16h77.22c87.78,0,150.08-61.77,150.08-146.61S799.93,9.85,711.91,9.85h0Z"/>
          </g>
          <g>
            <polygon class="cls-3" points="612.22 192.07 593.85 192.07 593.85 173.74 663.16 173.74 663.16 192.07 647.17 192.07 629.56 212.04 612.22 192.07"/>
            <path class="cls-2" d="m661.66,175.24v15.33h-15.16l-.9,1.02-16.03,18.18-15.77-18.16-.9-1.03h-17.55v-15.33h66.3m3-3h-72.3v21.33h19.19l17.73,20.42.84,101.65.85-102.92,16.88-19.15h16.81v-21.33h0Z"/>
          </g>
          <g>
            <polygon class="cls-3" points="593.65 301.08 593.65 229.34 622.74 228.97 624.01 301.08 593.65 301.08"/>
            <path class="cls-2" d="m621.27,230.49l1.21,69.1h-27.33v-68.76l26.12-.33m2.95-3.04l-32.07.41v74.73h33.39l-1.32-75.14h0Z"/>
          </g>
        </g>
        <g>
          <path class="cls-3" d="m444.75,303.71c-30.35,0-56.41-9.46-75.39-27.36-18.69-17.63-29.15-42.21-30.31-71.17h71.69c1.31,22.32,13.71,35.08,34.19,35.08s35.33-14.47,35.33-36-15.15-35.7-38.59-35.7h-45.82v-14.25l49.27-80.7h-98.72V11.35h194.8v12.14l-57.84,94.67h2.5c41.38,9.88,67.07,43.09,67.07,86.69,0,27.96-10.8,53.22-30.42,71.12-19.61,17.89-47.23,27.75-77.77,27.75Z"/>
          <path class="cls-2" d="m539.7,12.85v10.22l-56.22,92.02-2.78,4.56h4.99c40.57,9.77,65.75,42.38,65.75,85.19,0,14.01-2.66,27.22-7.91,39.28-5.1,11.71-12.5,22.05-22.02,30.73-19.33,17.64-46.59,27.35-76.76,27.35s-55.67-9.32-74.36-26.95c-18.06-17.04-28.32-40.7-29.77-68.57h68.72c1.8,22.34,14.64,35.08,35.59,35.08,22.03,0,36.83-15.07,36.83-37.5s-15.74-37.2-40.09-37.2h-44.32v-12.32l47.66-78.05,2.79-4.56h-99.89V12.85h191.8m3-3h-197.8v65.27h97.55l-48.1,78.77v16.17h47.32c22.64,0,37.09,13.07,37.09,34.2s-13.94,34.5-33.83,34.5-31.88-11.34-32.76-35.08h-74.68c1.75,61.32,44.73,101.52,107.25,101.52s109.69-41.58,109.69-100.36c0-44.76-26.69-78.3-68.4-88.19h0l56.66-92.74v-14.07h0Z"/>
        </g>
        <g>
          <path class="cls-3" d="m256.47,301.1l-16.05-47.31h-105.39l-16.13,47.31H36.18L149.41,12.84h76.4l115.72,288.27h-85.07Zm-102.94-107.1h68.36l-34.34-96.24-34.03,96.24Z"/>
          <path class="cls-2" d="m224.8,14.34l114.51,285.27h-81.77l-15.36-45.27-.69-2.04h-107.54l-.69,2.03-15.44,45.27H38.38L150.43,14.34h74.37m-73.4,181.17h72.61l-1.43-4.01-32.2-90.25-2.84-7.95-2.82,7.96-31.91,90.25-1.41,4M226.83,11.34h-78.44L33.98,302.6h85.99l16.13-47.31h103.24l16.05,47.31h88.36L226.83,11.34h0Zm-71.19,181.17l31.91-90.25,32.2,90.25h-64.12Z"/>
        </g>
        <g>
          <path class="cls-3" d="m913.5,301.1V12.84h122.51c29.63,0,56.67,10.4,76.13,29.29,19.53,18.96,30.28,45.39,30.28,74.45s-10.76,55.58-30.29,74.62c-19.48,19-46.52,29.46-76.12,29.46h-45.09v80.45h-77.42Zm77.42-147.51h35.47c21.52,0,36.54-15.15,36.54-36.84s-15.03-36.84-36.54-36.84h-35.47v73.69Z"/>
          <path class="cls-2" d="m1036,14.34c29.24,0,55.9,10.25,75.08,28.87,19.23,18.67,29.83,44.73,29.83,73.37s-10.59,54.79-29.83,73.55c-19.2,18.73-45.86,29.04-75.08,29.04h-46.59v80.44h-74.42V14.34h121.01m-46.59,140.76h36.97c22.4,0,38.04-15.77,38.04-38.34s-15.64-38.34-38.04-38.34h-36.97v76.69m46.59-143.76h-124.01v291.27h80.42v-80.44h43.59c61.91,0,107.91-44.51,107.91-105.59s-46-105.23-107.91-105.23h0Zm-43.59,140.76v-70.69h33.97c21.12,0,35.04,14.64,35.04,35.34s-13.92,35.34-35.04,35.34h-33.97Z"/>
        </g>
      </g>
    </mask>
    <linearGradient id="linear-gradient" x1="585.48" y1="129.24" x2="585.48" y2="315.81" gradientUnits="userSpaceOnUse">
      <stop offset=".06" stop-color="#5a5c61"/>
      <stop offset=".27" stop-color="#8f9096"/>
      <stop offset=".46" stop-color="#c6c6c6"/>
      <stop offset=".85" stop-color="#ebebeb"/>
    </linearGradient>
    <mask id="mask-1" x="15.16" y="-41.63" width="1170.33" height="357.27" maskUnits="userSpaceOnUse">
      <rect class="cls-3" x="15.16" y="-41.63" width="1170.33" height="164.35"/>
    </mask>
  </defs>
  <g id="text">
    <g>
      <g>
        <path class="cls-2" d="m501.08,110.92l50.02-81.88c.94-1.55,1.44-3.32,1.44-5.13v-14.07c0-5.44-4.41-9.85-9.85-9.85h-197.8c-5.44,0-9.85,4.41-9.85,9.85v65.27c0,5.44,4.41,9.85,9.85,9.85h80l-38.95,63.8c-.94,1.55-1.44,3.32-1.44,5.13v16.17c0,5.44,4.41,9.85,9.85,9.85h47.32c17.31,0,27.24,8.88,27.24,24.36s-9.19,24.66-23.99,24.66-22.28-8.37-22.92-25.6c-.2-5.29-4.54-9.48-9.84-9.48h-74.67c-2.66,0-5.21,1.08-7.06,2.98-1.85,1.91-2.86,4.48-2.78,7.14,1.9,66.45,48.95,111.09,117.09,111.09,33.38,0,63.72-10.91,85.42-30.71,22-20.08,34.11-48.31,34.11-79.5,0-24.08-7.14-45.94-20.64-63.23-10.84-13.88-25.39-24.33-42.56-30.69Z"/>
        <path class="cls-2" d="m235.97,7.67c-1.5-3.73-5.12-6.18-9.14-6.18h-78.44c-4.05,0-7.68,2.48-9.16,6.25L24.81,299c-1.19,3.03-.81,6.45,1.03,9.15,1.83,2.69,4.88,4.3,8.14,4.3h85.99c4.21,0,7.96-2.68,9.32-6.67l13.86-40.64h89.14l13.78,40.62c1.36,4,5.11,6.68,9.32,6.68h88.36c3.27,0,6.33-1.62,8.16-4.33,1.83-2.71,2.2-6.15.98-9.18L235.97,7.67Zm-66.4,174.99l18.03-50.99,18.19,50.99h-36.22Z"/>
        <path class="cls-2" d="m1120.03,33.98c-21.59-20.95-51.43-32.49-84.03-32.49h-124.01c-5.44,0-9.85,4.41-9.85,9.85v291.27c0,5.44,4.41,9.85,9.85,9.85h80.42c5.44,0,9.85-4.41,9.85-9.85v-70.6h33.74c32.58,0,62.43-11.61,84.05-32.69,21.74-21.2,33.71-50.59,33.71-82.75s-11.98-61.48-33.73-82.59Zm-93.65,108.26h-24.12v-50.99h24.12c15.31,0,25.2,10.01,25.2,25.5s-9.89,25.5-25.2,25.5Z"/>
        <path class="cls-2" d="m776.06,11.55c-19.75-7.67-41.33-11.55-64.15-11.55h-119.76c-5.44,0-9.85,4.41-9.85,9.85v75.16c0,5.44,4.41,9.85,9.85,9.85h7.6v67.54h-7.39c-5.44,0-9.85,4.41-9.85,9.85v21.33c0,5.44,4.41,9.85,9.85,9.85h14.69l12.37,14.25-27.4.35c-5.39.07-9.72,4.46-9.72,9.85v74.73c0,5.44,4.41,9.85,9.85,9.85h28.09l.03,3.29c.04,5.41,4.44,9.76,9.85,9.76s9.8-4.36,9.85-9.76l.03-3.29h71.92c92.67,0,159.92-65.8,159.92-156.45,0-43.85-15.98-83.61-45-111.97-14.36-14.03-31.44-24.95-50.78-32.46Zm-135.28,204.92l11.51-13.06h12.36c5.44,0,9.85-4.41,9.85-9.85v-21.33c0-5.44-4.41-9.85-9.85-9.85h-8.5v-67.54h51.98c38.18,0,61.9,23.42,61.9,61.12s-24.3,61.6-61.9,61.6h-67.36s0-1.1,0-1.1Z"/>
      </g>
      <g>
        <g>
          <rect class="cls-4" x="609.59" y="92.42" width="36.71" height="74.76"/>
          <path class="cls-4" d="m711.91,9.85h-119.76v75.16h115.98c43.05,0,71.74,27.84,71.74,70.97s-28.69,71.45-71.74,71.45h-72.75s-.7,75.16-.7,75.16h77.22c87.78,0,150.08-61.77,150.08-146.61S799.93,9.85,711.91,9.85Z"/>
          <polygon class="cls-4" points="592.35 193.57 611.54 193.57 629.27 213.99 630.11 315.64 630.96 212.72 647.85 193.57 664.66 193.57 664.66 172.24 592.35 172.24 592.35 193.57"/>
          <polygon class="cls-4" points="624.22 227.45 592.15 227.86 592.15 302.58 625.54 302.58 624.22 227.45"/>
        </g>
        <path class="cls-4" d="m486.04,116.66h0l56.66-92.74v-14.07h-197.8v65.27h97.55l-48.1,78.77v16.17h47.32c22.64,0,37.09,13.07,37.09,34.2s-13.94,34.5-33.83,34.5-31.88-11.34-32.76-35.08h-74.68c1.75,61.32,44.73,101.52,107.25,101.52s109.69-41.58,109.69-100.36c0-44.76-26.69-78.3-68.4-88.19Z"/>
        <path class="cls-4" d="m136.1,255.3h103.24l16.05,47.31h88.36L226.83,11.34h-78.44L33.98,302.6h85.99l16.13-47.31Zm51.46-153.05l32.2,90.25h-64.12l31.91-90.25Z"/>
        <path class="cls-4" d="m992.42,222.16h43.59c61.91,0,107.91-44.51,107.91-105.59s-46-105.23-107.91-105.23h-124.01v291.27h80.42v-80.44Zm0-140.75h33.97c21.12,0,35.04,14.64,35.04,35.34s-13.92,35.34-35.04,35.34h-33.97v-70.69Z"/>
      </g>
      <g class="cls-6">
        <rect class="cls-1" y="122.72" width="1170.97" height="199.2"/>
      </g>
      <g class="cls-5">
        <g>
          <g>
            <path class="cls-3" d="m643.31,95.42v68.76h-30.71v-68.76h30.71m3-3h-36.71v74.76h36.71v-74.76h0Z"/>
            <path class="cls-3" d="m711.91,12.85c21.22,0,41.24,3.59,59.5,10.68,17.71,6.88,33.34,16.86,46.45,29.67,13.08,12.78,23.27,28,30.28,45.24,7.2,17.7,10.85,37.06,10.85,57.54s-3.66,39.82-10.88,57.57c-7.03,17.28-17.24,32.56-30.34,45.41-13.14,12.89-28.77,22.93-46.47,29.86-18.26,7.15-38.24,10.77-59.39,10.77h-74.2l.64-69.17h36.55s33.23.01,33.23.01c44.71,0,74.74-29.92,74.74-74.45s-30.04-73.97-74.74-73.97h-112.98V12.85h116.76m0-3h-119.76v75.16h115.98c43.05,0,71.74,27.84,71.74,70.97s-28.69,71.45-71.74,71.45h-72.75s-.7,75.16-.7,75.16h77.22c87.78,0,150.08-61.77,150.08-146.61S799.93,9.85,711.91,9.85h0Z"/>
            <path class="cls-3" d="m661.66,175.24v15.33h-15.16l-.9,1.02-16.03,18.18-15.77-18.16-.9-1.03h-17.55v-15.33h66.3m3-3h-72.3v21.33h19.19l17.73,20.42.84,101.65.85-102.92,16.88-19.15h16.81v-21.33h0Z"/>
            <path class="cls-3" d="m621.27,230.49l1.21,69.1h-27.33v-68.76l26.12-.33m2.95-3.04l-32.07.41v74.73h33.39l-1.32-75.14h0Z"/>
          </g>
          <path class="cls-3" d="m539.7,12.85v10.22l-56.22,92.02-2.78,4.56h4.99c40.57,9.77,65.75,42.38,65.75,85.19,0,14.01-2.66,27.22-7.91,39.28-5.1,11.71-12.5,22.05-22.02,30.73-19.33,17.64-46.59,27.35-76.76,27.35s-55.67-9.32-74.36-26.95c-18.06-17.04-28.32-40.7-29.77-68.57h68.72c1.8,22.34,14.64,35.08,35.59,35.08,22.03,0,36.83-15.07,36.83-37.5s-15.74-37.2-40.09-37.2h-44.32v-12.32l47.66-78.05,2.79-4.56h-99.89V12.85h191.8m3-3h-197.8v65.27h97.55l-48.1,78.77v16.17h47.32c22.64,0,37.09,13.07,37.09,34.2s-13.94,34.5-33.83,34.5-31.88-11.34-32.76-35.08h-74.68c1.75,61.32,44.73,101.52,107.25,101.52s109.69-41.58,109.69-100.36c0-44.76-26.69-78.3-68.4-88.19h0l56.66-92.74v-14.07h0Z"/>
          <path class="cls-3" d="m224.8,14.34l114.51,285.27h-81.77l-15.36-45.27-.69-2.04h-107.54l-.69,2.03-15.44,45.27H38.38L150.43,14.34h74.37m-73.4,181.17h72.61l-1.43-4.01-32.2-90.25-2.84-7.95-2.82,7.96-31.91,90.25-1.41,4M226.83,11.34h-78.44L33.98,302.6h85.99l16.13-47.31h103.24l16.05,47.31h88.36L226.83,11.34h0Zm-71.19,181.17l31.91-90.25,32.2,90.25h-64.12Z"/>
          <path class="cls-3" d="m1036,14.34c29.24,0,55.9,10.25,75.08,28.87,19.23,18.67,29.83,44.73,29.83,73.37s-10.59,54.79-29.83,73.55c-19.2,18.73-45.86,29.04-75.08,29.04h-46.59v80.44h-74.42V14.34h121.01m-46.59,140.76h36.97c22.4,0,38.04-15.77,38.04-38.34s-15.64-38.34-38.04-38.34h-36.97v76.69m46.59-143.76h-124.01v291.27h80.42v-80.44h43.59c61.91,0,107.91-44.51,107.91-105.59s-46-105.23-107.91-105.23h0Zm-43.59,140.76v-70.69h33.97c21.12,0,35.04,14.64,35.04,35.34s-13.92,35.34-35.04,35.34h-33.97Z"/>
        </g>
      </g>
    </g>
  </g>
</svg>